<?xml version="1.0" encoding="iso-8859-1"?>
<!-- Generator: Adobe Illustrator 19.0.0, SVG Export Plug-In . SVG Version: 6.00 Build 0)  -->
<svg version="1.1" id="Layer_1" xmlns="http://www.w3.org/2000/svg" xmlns:xlink="http://www.w3.org/1999/xlink" x="0px" y="0px"
	 viewBox="0 0 492.308 492.308" style="enable-background:new 0 0 492.308 492.308;" xml:space="preserve">
<g>
	<g>
		<path d="M67.601,0v19.692c223.327,0,405.014,181.692,405.014,405.019h19.692C492.308,190.529,301.784,0,67.601,0z"/>
	</g>
</g>
<g>
	<g>
		<path d="M67.601,89.279v19.692c174.101,0,315.74,141.644,315.74,315.74h19.692C403.034,239.75,252.558,89.279,67.601,89.279z"/>
	</g>
</g>
<g>
	<g>
		<path d="M67.601,178.548v19.692c124.875,0,226.466,101.596,226.466,226.471h19.692C313.76,288.981,203.332,178.548,67.601,178.548
			z"/>
	</g>
</g>
<g>
	<g>
		<path d="M67.601,267.827v19.692c75.649,0,137.192,61.548,137.192,137.192h19.692C224.486,338.202,154.106,267.827,67.601,267.827z
			"/>
	</g>
</g>
<g>
	<g>
		<path d="M67.601,357.106C30.327,357.106,0,387.433,0,424.712c0,37.269,30.327,67.596,67.601,67.596
			c37.279,0,67.606-30.327,67.606-67.596C135.207,387.433,104.88,357.106,67.601,357.106z M67.601,472.615
			c-26.418,0-47.909-21.49-47.909-47.904c0-26.423,21.49-47.913,47.909-47.913s47.913,21.49,47.913,47.913
			C115.514,451.125,94.019,472.615,67.601,472.615z"/>
	</g>
</g>
<g>
</g>
<g>
</g>
<g>
</g>
<g>
</g>
<g>
</g>
<g>
</g>
<g>
</g>
<g>
</g>
<g>
</g>
<g>
</g>
<g>
</g>
<g>
</g>
<g>
</g>
<g>
</g>
<g>
</g>
</svg>
